<svg xmlns="http://www.w3.org/2000/svg" xmlns:xlink="http://www.w3.org/1999/xlink" width="1920" zoomAndPan="magnify" viewBox="0 0 1440 225" height="300" preserveAspectRatio="xMidYMid meet" version="1.0"><defs><g/><clipPath id="af688cd25b"><path d="M 1275 0 L 1440 0 L 1440 215 L 1275 215 Z M 1275 0 " clip-rule="nonzero"/></clipPath><clipPath id="b50f7e982c"><path d="M 1394.316406 281.75 L 1275.4375 -20.460938 L 1411.535156 -73.996094 L 1530.414062 228.210938 Z M 1394.316406 281.75 " clip-rule="nonzero"/></clipPath><clipPath id="fb09047937"><path d="M 1394.316406 281.75 L 1275.4375 -20.460938 L 1411.535156 -73.996094 L 1530.414062 228.210938 Z M 1394.316406 281.75 " clip-rule="nonzero"/></clipPath><clipPath id="3b469ecc3e"><path d="M 1297 0 L 1440 0 L 1440 225 L 1297 225 Z M 1297 0 " clip-rule="nonzero"/></clipPath><clipPath id="c2f519dae2"><path d="M 1394.316406 281.75 L 1275.4375 -20.460938 L 1411.535156 -73.996094 L 1530.414062 228.210938 Z M 1394.316406 281.75 " clip-rule="nonzero"/></clipPath><clipPath id="95635ef779"><path d="M 1394.316406 281.75 L 1275.4375 -20.460938 L 1411.535156 -73.996094 L 1530.414062 228.210938 Z M 1394.316406 281.75 " clip-rule="nonzero"/></clipPath><clipPath id="c2ec06bd75"><path d="M 0 0 L 164 0 L 164 215 L 0 215 Z M 0 0 " clip-rule="nonzero"/></clipPath><clipPath id="58bb507cac"><path d="M 164.277344 -20.90625 L 46.085938 281.574219 L -90.132812 228.347656 L 28.054688 -74.132812 Z M 164.277344 -20.90625 " clip-rule="nonzero"/></clipPath><clipPath id="0fa3a9518b"><path d="M 46.019531 281.75 L 164.207031 -20.730469 L 27.988281 -73.957031 L -90.203125 228.523438 Z M 46.019531 281.75 " clip-rule="nonzero"/></clipPath><clipPath id="cf004353ad"><path d="M 0 0 L 143 0 L 143 225 L 0 225 Z M 0 0 " clip-rule="nonzero"/></clipPath><clipPath id="a6bf85853b"><path d="M 164.277344 -20.90625 L 46.085938 281.574219 L -90.132812 228.347656 L 28.054688 -74.132812 Z M 164.277344 -20.90625 " clip-rule="nonzero"/></clipPath><clipPath id="b7e974bf67"><path d="M 46.019531 281.75 L 164.207031 -20.730469 L 27.988281 -73.957031 L -90.203125 228.523438 Z M 46.019531 281.75 " clip-rule="nonzero"/></clipPath><clipPath id="12ab6101b4"><path d="M 166 45.050781 L 244 45.050781 L 244 136 L 166 136 Z M 166 45.050781 " clip-rule="nonzero"/></clipPath><clipPath id="8f2b59cc2b"><path d="M 1214 45.050781 L 1282 45.050781 L 1282 123 L 1214 123 Z M 1214 45.050781 " clip-rule="nonzero"/></clipPath><clipPath id="cc82a5afed"><path d="M 1254 93 L 1283.621094 93 L 1283.621094 146 L 1254 146 Z M 1254 93 " clip-rule="nonzero"/></clipPath></defs><rect x="-144" width="1728" fill="#ffffff" y="-22.5" height="270" fill-opacity="1"/><rect x="-144" width="1728" fill="#ffffff" y="-22.5" height="270" fill-opacity="1"/><g fill="#002f76" fill-opacity="1"><g transform="translate(307.898425, 142.500004)"><g><path d="M 42.597656 -9.492188 L 49.375 -15.253906 L 55.25 -0.339844 L 1.695312 -0.339844 C 3.050781 -1.84375 4.03125 -3.539062 4.632812 -5.421875 C 5.234375 -7.304688 5.613281 -8.964844 5.761719 -10.394531 C 5.914062 -11.824219 5.988281 -12.691406 5.988281 -12.992188 L 5.988281 -66.210938 C 5.988281 -66.585938 5.914062 -67.492188 5.761719 -68.921875 C 5.613281 -70.355469 5.234375 -71.992188 4.632812 -73.835938 C 4.03125 -75.683594 3.050781 -77.394531 1.695312 -78.976562 L 55.25 -78.976562 L 49.488281 -64.402344 L 42.597656 -69.828125 C 41.242188 -70.804688 39.695312 -71.332031 37.964844 -71.40625 L 21.015625 -71.40625 L 21.015625 -43.726562 L 32.652344 -43.726562 C 33.03125 -43.726562 33.933594 -43.800781 35.363281 -43.953125 C 36.796875 -44.101562 38.433594 -44.480469 40.28125 -45.082031 C 42.125 -45.683594 43.839844 -46.664062 45.421875 -48.019531 L 45.421875 -31.976562 C 43.3125 -33.332031 41.257812 -34.308594 39.261719 -34.914062 C 37.265625 -35.515625 35.648438 -35.875 34.40625 -35.988281 C 33.160156 -36.097656 32.539062 -36.15625 32.539062 -36.15625 L 21.015625 -36.15625 L 21.015625 -7.910156 L 37.964844 -7.910156 C 39.695312 -7.984375 41.242188 -8.511719 42.597656 -9.492188 Z M 42.597656 -9.492188 "/></g></g></g><g fill="#002f76" fill-opacity="1"><g transform="translate(363.710812, 142.500004)"><g><path d="M 56.832031 0 L 36.382812 0 C 38.414062 -5.046875 39.621094 -8.492188 39.996094 -10.339844 C 40.375 -12.183594 40.5625 -13.21875 40.5625 -13.445312 C 40.5625 -17.589844 40.5625 -21.710938 40.5625 -25.816406 C 40.5625 -29.921875 40.5625 -34.046875 40.5625 -38.191406 C 40.5625 -38.191406 40.488281 -38.621094 40.335938 -39.488281 C 40.1875 -40.355469 39.753906 -41.371094 39.039062 -42.539062 C 38.320312 -43.707031 37.117188 -44.742188 35.421875 -45.648438 C 33.726562 -46.550781 31.335938 -47.003906 28.246094 -47.003906 C 26.964844 -47.003906 25.554688 -46.832031 24.011719 -46.496094 C 22.464844 -46.15625 20.753906 -45.570312 18.867188 -44.742188 L 19.09375 -13.445312 C 19.09375 -13.21875 19.152344 -12.464844 19.265625 -11.1875 C 19.378906 -9.90625 19.734375 -8.285156 20.335938 -6.328125 C 20.941406 -4.367188 21.957031 -2.257812 23.386719 0 L 1.582031 0 C 2.9375 -1.65625 3.917969 -3.390625 4.519531 -5.199219 C 5.121094 -7.003906 5.5 -8.644531 5.648438 -10.113281 C 5.800781 -11.582031 5.875 -12.578125 5.875 -13.105469 C 5.875 -17.625 5.875 -22.183594 5.875 -26.777344 C 5.875 -31.371094 5.875 -35.929688 5.875 -40.449219 C 5.875 -40.449219 5.820312 -41.035156 5.707031 -42.199219 C 5.59375 -43.367188 5.234375 -44.742188 4.632812 -46.324219 C 4.03125 -47.90625 3.011719 -49.335938 1.582031 -50.617188 C 1.582031 -50.617188 2.164062 -50.902344 3.332031 -51.464844 C 4.5 -52.03125 5.933594 -52.691406 7.625 -53.441406 C 9.320312 -54.195312 11.015625 -54.96875 12.710938 -55.757812 C 14.40625 -56.550781 15.835938 -57.210938 17.003906 -57.738281 C 18.171875 -58.265625 18.757812 -58.527344 18.757812 -58.527344 L 18.757812 -47.792969 C 19.28125 -48.320312 20.300781 -49.167969 21.804688 -50.335938 C 23.3125 -51.503906 25.0625 -52.707031 27.058594 -53.953125 C 29.054688 -55.195312 31.128906 -56.269531 33.273438 -57.171875 C 35.421875 -58.074219 37.472656 -58.527344 39.433594 -58.527344 C 43.273438 -58.527344 46.417969 -57.359375 48.867188 -55.023438 C 51.316406 -52.691406 52.539062 -48.960938 52.539062 -43.839844 C 52.539062 -38.71875 52.558594 -33.59375 52.59375 -28.472656 C 52.632812 -23.351562 52.652344 -18.230469 52.652344 -13.105469 C 52.652344 -12.429688 52.878906 -11.015625 53.332031 -8.871094 C 53.78125 -6.722656 54.949219 -3.765625 56.832031 0 Z M 56.832031 0 "/></g></g></g><g fill="#002f76" fill-opacity="1"><g transform="translate(421.895787, 142.500004)"><g><path d="M 56.832031 0 L 36.382812 0 C 38.414062 -5.046875 39.621094 -8.492188 39.996094 -10.339844 C 40.375 -12.183594 40.5625 -13.21875 40.5625 -13.445312 C 40.5625 -17.589844 40.5625 -21.710938 40.5625 -25.816406 C 40.5625 -29.921875 40.5625 -34.046875 40.5625 -38.191406 C 40.5625 -38.191406 40.488281 -38.621094 40.335938 -39.488281 C 40.1875 -40.355469 39.753906 -41.371094 39.039062 -42.539062 C 38.320312 -43.707031 37.117188 -44.742188 35.421875 -45.648438 C 33.726562 -46.550781 31.335938 -47.003906 28.246094 -47.003906 C 26.964844 -47.003906 25.554688 -46.832031 24.011719 -46.496094 C 22.464844 -46.15625 20.753906 -45.570312 18.867188 -44.742188 L 19.09375 -13.445312 C 19.09375 -13.21875 19.152344 -12.464844 19.265625 -11.1875 C 19.378906 -9.90625 19.734375 -8.285156 20.335938 -6.328125 C 20.941406 -4.367188 21.957031 -2.257812 23.386719 0 L 1.582031 0 C 2.9375 -1.65625 3.917969 -3.390625 4.519531 -5.199219 C 5.121094 -7.003906 5.5 -8.644531 5.648438 -10.113281 C 5.800781 -11.582031 5.875 -12.578125 5.875 -13.105469 C 5.875 -17.625 5.875 -22.183594 5.875 -26.777344 C 5.875 -31.371094 5.875 -35.929688 5.875 -40.449219 C 5.875 -40.449219 5.820312 -41.035156 5.707031 -42.199219 C 5.59375 -43.367188 5.234375 -44.742188 4.632812 -46.324219 C 4.03125 -47.90625 3.011719 -49.335938 1.582031 -50.617188 C 1.582031 -50.617188 2.164062 -50.902344 3.332031 -51.464844 C 4.5 -52.03125 5.933594 -52.691406 7.625 -53.441406 C 9.320312 -54.195312 11.015625 -54.96875 12.710938 -55.757812 C 14.40625 -56.550781 15.835938 -57.210938 17.003906 -57.738281 C 18.171875 -58.265625 18.757812 -58.527344 18.757812 -58.527344 L 18.757812 -47.792969 C 19.28125 -48.320312 20.300781 -49.167969 21.804688 -50.335938 C 23.3125 -51.503906 25.0625 -52.707031 27.058594 -53.953125 C 29.054688 -55.195312 31.128906 -56.269531 33.273438 -57.171875 C 35.421875 -58.074219 37.472656 -58.527344 39.433594 -58.527344 C 43.273438 -58.527344 46.417969 -57.359375 48.867188 -55.023438 C 51.316406 -52.691406 52.539062 -48.960938 52.539062 -43.839844 C 52.539062 -38.71875 52.558594 -33.59375 52.59375 -28.472656 C 52.632812 -23.351562 52.652344 -18.230469 52.652344 -13.105469 C 52.652344 -12.429688 52.878906 -11.015625 53.332031 -8.871094 C 53.78125 -6.722656 54.949219 -3.765625 56.832031 0 Z M 56.832031 0 "/></g></g></g><g fill="#002f76" fill-opacity="1"><g transform="translate(480.080763, 142.500004)"><g><path d="M 11.636719 -62.820312 C 9.300781 -64.101562 7.363281 -65.625 5.820312 -67.398438 C 4.273438 -69.167969 3.125 -70.730469 2.371094 -72.085938 C 1.621094 -73.441406 1.242188 -74.121094 1.242188 -74.121094 L 11.863281 -84.289062 C 13.144531 -81.878906 14.574219 -79.902344 16.15625 -78.355469 C 17.738281 -76.8125 19.113281 -75.683594 20.28125 -74.96875 C 21.449219 -74.25 22.03125 -73.894531 22.03125 -73.894531 Z M 23.386719 0.113281 L 1.582031 0.113281 C 2.9375 -1.542969 3.917969 -3.277344 4.519531 -5.085938 C 5.121094 -6.890625 5.5 -8.53125 5.648438 -10 C 5.800781 -11.46875 5.875 -12.464844 5.875 -12.992188 L 5.875 -39.773438 C 5.875 -39.773438 5.820312 -40.375 5.707031 -41.578125 C 5.59375 -42.785156 5.234375 -44.179688 4.632812 -45.761719 C 4.03125 -47.339844 3.011719 -48.734375 1.582031 -49.941406 L 18.980469 -57.847656 L 19.09375 -13.332031 C 19.09375 -13.105469 19.152344 -12.351562 19.265625 -11.074219 C 19.378906 -9.792969 19.734375 -8.171875 20.335938 -6.214844 C 20.941406 -4.257812 21.957031 -2.148438 23.386719 0.113281 Z M 23.386719 0.113281 "/></g></g></g><g fill="#002f76" fill-opacity="1"><g transform="translate(504.823495, 142.500004)"><g><path d="M 29.039062 -32.992188 C 33.332031 -29.828125 36.757812 -27.230469 39.320312 -25.195312 C 41.878906 -23.164062 43.726562 -21.203125 44.855469 -19.320312 C 45.984375 -17.4375 46.550781 -15.214844 46.550781 -12.65625 C 46.550781 -11.976562 46.324219 -10.867188 45.871094 -9.320312 C 45.421875 -7.777344 44.402344 -6.15625 42.820312 -4.464844 C 41.242188 -2.769531 38.828125 -1.335938 35.589844 -0.167969 C 32.351562 1 27.984375 1.582031 22.484375 1.582031 C 18.566406 1.582031 15.234375 1.128906 12.484375 0.226562 C 9.734375 -0.679688 7.511719 -1.75 5.820312 -2.996094 C 4.125 -4.238281 2.882812 -5.308594 2.089844 -6.214844 C 1.300781 -7.117188 0.902344 -7.570312 0.902344 -7.570312 L 11.523438 -18.53125 C 11.523438 -18.53125 11.976562 -17.890625 12.878906 -16.609375 C 13.785156 -15.328125 15.121094 -13.839844 16.890625 -12.144531 C 18.660156 -10.453125 20.902344 -8.945312 23.613281 -7.625 C 26.324219 -6.308594 29.527344 -5.648438 33.21875 -5.648438 C 34.875 -5.574219 36.382812 -6.253906 37.738281 -7.683594 C 37.738281 -9.039062 36.175781 -10.753906 33.050781 -12.824219 C 29.921875 -14.894531 25.796875 -17.664062 20.675781 -21.128906 C 15.554688 -24.820312 11.808594 -28.019531 9.433594 -30.734375 C 7.0625 -33.445312 5.535156 -35.835938 4.859375 -37.90625 C 4.179688 -39.980469 3.839844 -41.917969 3.839844 -43.726562 C 3.839844 -45.609375 4.59375 -47.644531 6.101562 -49.828125 C 7.609375 -52.011719 9.8125 -53.875 12.710938 -55.421875 C 15.609375 -56.964844 19.171875 -57.738281 23.386719 -57.738281 C 28.433594 -57.738281 32.3125 -57.246094 35.027344 -56.269531 C 37.738281 -55.289062 39.640625 -54.289062 40.730469 -53.273438 C 41.824219 -52.257812 42.371094 -51.75 42.371094 -51.75 L 37.171875 -38.078125 C 37.171875 -38.078125 36.570312 -38.660156 35.363281 -39.828125 C 34.160156 -40.996094 32.558594 -42.351562 30.5625 -43.894531 C 28.566406 -45.441406 26.324219 -46.816406 23.839844 -48.019531 C 21.355469 -49.226562 18.792969 -49.828125 16.15625 -49.828125 C 13.070312 -49.828125 11.523438 -49.226562 11.523438 -48.019531 C 11.523438 -46.664062 13.164062 -44.761719 16.441406 -42.3125 C 19.714844 -39.867188 23.914062 -36.757812 29.039062 -32.992188 Z M 29.039062 -32.992188 "/></g></g></g><g fill="#002f76" fill-opacity="1"><g transform="translate(552.614273, 142.500004)"><g/></g></g><g fill="#002f76" fill-opacity="1"><g transform="translate(569.561347, 142.500004)"><g><path d="M 44.292969 -36.269531 L 66.4375 -36.269531 C 64.929688 -34.386719 63.855469 -32.410156 63.214844 -30.335938 C 62.578125 -28.265625 62.179688 -26.496094 62.03125 -25.027344 C 61.878906 -23.558594 61.804688 -22.824219 61.804688 -22.824219 L 61.804688 -8.925781 C 58.714844 -5.308594 54.929688 -2.710938 50.449219 -1.128906 C 45.96875 0.453125 41.316406 1.242188 36.496094 1.242188 C 31.675781 1.242188 27.191406 0.527344 23.050781 -0.902344 C 18.90625 -2.335938 15.273438 -4.652344 12.144531 -7.851562 C 9.019531 -11.054688 6.570312 -15.253906 4.800781 -20.449219 C 3.03125 -25.648438 2.148438 -32.011719 2.148438 -39.546875 C 2.148438 -49.5625 3.691406 -57.585938 6.777344 -63.613281 C 9.867188 -69.636719 13.992188 -73.96875 19.152344 -76.605469 C 24.3125 -79.242188 30.09375 -80.558594 36.496094 -80.558594 C 41.164062 -80.558594 45.609375 -79.808594 49.828125 -78.300781 C 54.046875 -76.792969 57.699219 -74.382812 60.789062 -71.070312 L 48.699219 -56.269531 C 47.265625 -58.902344 45.421875 -61.183594 43.160156 -63.105469 C 40.902344 -65.023438 38.019531 -66.511719 34.519531 -67.566406 C 31.015625 -68.621094 26.589844 -69.148438 21.242188 -69.148438 C 16.269531 -69.148438 13.859375 -64.816406 14.011719 -56.15625 C 14.011719 -53.367188 14.273438 -50.28125 14.800781 -46.890625 C 15.328125 -43.5 16.082031 -39.960938 17.0625 -36.269531 C 18.039062 -32.652344 19.28125 -29.132812 20.789062 -25.703125 C 22.296875 -22.277344 24.21875 -19.1875 26.550781 -16.441406 C 28.886719 -13.691406 31.75 -11.523438 35.140625 -9.941406 C 38.527344 -8.359375 42.597656 -7.570312 47.339844 -7.570312 C 47.644531 -7.570312 47.867188 -7.570312 48.019531 -7.570312 C 48.171875 -7.570312 48.394531 -7.570312 48.699219 -7.570312 L 48.699219 -22.824219 C 48.699219 -22.824219 48.621094 -23.445312 48.472656 -24.6875 C 48.320312 -25.929688 47.945312 -27.585938 47.339844 -29.660156 C 46.738281 -31.730469 45.722656 -33.933594 44.292969 -36.269531 Z M 44.292969 -36.269531 "/></g></g></g><g fill="#002f76" fill-opacity="1"><g transform="translate(636.671787, 142.500004)"><g><path d="M 29.039062 -57.847656 C 35.0625 -57.847656 40.074219 -56.492188 44.066406 -53.78125 C 48.058594 -51.070312 51.050781 -47.417969 53.046875 -42.820312 C 55.042969 -38.226562 56.042969 -33.105469 56.042969 -27.457031 C 56.042969 -20.300781 54.816406 -14.59375 52.371094 -10.339844 C 49.921875 -6.082031 46.644531 -3.011719 42.539062 -1.128906 C 38.433594 0.753906 33.933594 1.695312 29.039062 1.695312 C 24.140625 1.695312 19.640625 0.734375 15.535156 -1.1875 C 11.429688 -3.105469 8.171875 -6.253906 5.761719 -10.621094 C 3.351562 -14.988281 2.148438 -20.789062 2.148438 -28.019531 C 2.148438 -35.402344 3.351562 -41.257812 5.761719 -45.589844 C 8.171875 -49.921875 11.429688 -53.046875 15.535156 -54.96875 C 19.640625 -56.890625 24.140625 -57.847656 29.039062 -57.847656 Z M 43.160156 -12.089844 C 43.160156 -16.835938 43.011719 -21.503906 42.710938 -26.101562 C 42.40625 -30.695312 41.128906 -35.175781 38.867188 -39.546875 C 36.910156 -43.460938 34.140625 -46.117188 30.5625 -47.511719 C 26.984375 -48.90625 23.085938 -49.601562 18.867188 -49.601562 C 17.136719 -49.601562 15.914062 -49.113281 15.195312 -48.132812 C 14.480469 -47.152344 14.125 -45.761719 14.125 -43.953125 C 14.125 -39.28125 14.5 -34.667969 15.253906 -30.109375 C 16.007812 -25.554688 17.363281 -21.089844 19.320312 -16.722656 C 21.128906 -12.730469 23.707031 -9.847656 27.058594 -8.078125 C 30.414062 -6.308594 34.234375 -5.421875 38.527344 -5.421875 C 39.882812 -5.347656 40.996094 -5.875 41.863281 -7.003906 C 42.726562 -8.136719 43.160156 -9.828125 43.160156 -12.089844 Z M 43.160156 -12.089844 "/></g></g></g><g fill="#002f76" fill-opacity="1"><g transform="translate(693.7269, 142.500004)"><g><path d="M 29.039062 -32.992188 C 33.332031 -29.828125 36.757812 -27.230469 39.320312 -25.195312 C 41.878906 -23.164062 43.726562 -21.203125 44.855469 -19.320312 C 45.984375 -17.4375 46.550781 -15.214844 46.550781 -12.65625 C 46.550781 -11.976562 46.324219 -10.867188 45.871094 -9.320312 C 45.421875 -7.777344 44.402344 -6.15625 42.820312 -4.464844 C 41.242188 -2.769531 38.828125 -1.335938 35.589844 -0.167969 C 32.351562 1 27.984375 1.582031 22.484375 1.582031 C 18.566406 1.582031 15.234375 1.128906 12.484375 0.226562 C 9.734375 -0.679688 7.511719 -1.75 5.820312 -2.996094 C 4.125 -4.238281 2.882812 -5.308594 2.089844 -6.214844 C 1.300781 -7.117188 0.902344 -7.570312 0.902344 -7.570312 L 11.523438 -18.53125 C 11.523438 -18.53125 11.976562 -17.890625 12.878906 -16.609375 C 13.785156 -15.328125 15.121094 -13.839844 16.890625 -12.144531 C 18.660156 -10.453125 20.902344 -8.945312 23.613281 -7.625 C 26.324219 -6.308594 29.527344 -5.648438 33.21875 -5.648438 C 34.875 -5.574219 36.382812 -6.253906 37.738281 -7.683594 C 37.738281 -9.039062 36.175781 -10.753906 33.050781 -12.824219 C 29.921875 -14.894531 25.796875 -17.664062 20.675781 -21.128906 C 15.554688 -24.820312 11.808594 -28.019531 9.433594 -30.734375 C 7.0625 -33.445312 5.535156 -35.835938 4.859375 -37.90625 C 4.179688 -39.980469 3.839844 -41.917969 3.839844 -43.726562 C 3.839844 -45.609375 4.59375 -47.644531 6.101562 -49.828125 C 7.609375 -52.011719 9.8125 -53.875 12.710938 -55.421875 C 15.609375 -56.964844 19.171875 -57.738281 23.386719 -57.738281 C 28.433594 -57.738281 32.3125 -57.246094 35.027344 -56.269531 C 37.738281 -55.289062 39.640625 -54.289062 40.730469 -53.273438 C 41.824219 -52.257812 42.371094 -51.75 42.371094 -51.75 L 37.171875 -38.078125 C 37.171875 -38.078125 36.570312 -38.660156 35.363281 -39.828125 C 34.160156 -40.996094 32.558594 -42.351562 30.5625 -43.894531 C 28.566406 -45.441406 26.324219 -46.816406 23.839844 -48.019531 C 21.355469 -49.226562 18.792969 -49.828125 16.15625 -49.828125 C 13.070312 -49.828125 11.523438 -49.226562 11.523438 -48.019531 C 11.523438 -46.664062 13.164062 -44.761719 16.441406 -42.3125 C 19.714844 -39.867188 23.914062 -36.757812 29.039062 -32.992188 Z M 29.039062 -32.992188 "/></g></g></g><g fill="#002f76" fill-opacity="1"><g transform="translate(741.517654, 142.500004)"><g><path d="M 38.867188 -57.511719 C 41.65625 -57.511719 44.082031 -56.644531 46.15625 -54.910156 C 48.226562 -53.179688 49.960938 -50.902344 51.351562 -48.078125 C 52.746094 -45.25 53.800781 -42.164062 54.515625 -38.8125 C 55.230469 -35.460938 55.589844 -32.125 55.589844 -28.8125 C 55.589844 -23.164062 54.703125 -18.039062 52.933594 -13.445312 C 51.164062 -8.851562 48.585938 -5.199219 45.195312 -2.484375 C 41.804688 0.226562 37.625 1.582031 32.652344 1.582031 C 30.621094 1.582031 28.433594 1.335938 26.101562 0.847656 C 23.765625 0.359375 21.355469 -0.488281 18.867188 -1.695312 L 18.867188 8.699219 C 18.867188 8.925781 18.925781 9.679688 19.039062 10.960938 C 19.152344 12.242188 19.507812 13.859375 20.113281 15.816406 C 20.714844 17.777344 21.730469 19.847656 23.164062 22.03125 L 1.355469 22.03125 C 2.710938 20.375 3.691406 18.644531 4.292969 16.835938 C 4.894531 15.027344 5.273438 13.390625 5.421875 11.921875 C 5.574219 10.453125 5.648438 9.492188 5.648438 9.039062 L 5.648438 -39.773438 C 5.648438 -39.847656 5.554688 -40.449219 5.367188 -41.578125 C 5.179688 -42.710938 4.800781 -44.046875 4.238281 -45.589844 C 3.671875 -47.132812 2.710938 -48.585938 1.355469 -49.941406 C 1.355469 -49.941406 1.941406 -50.222656 3.105469 -50.789062 C 4.273438 -51.351562 5.707031 -52.011719 7.402344 -52.765625 C 9.09375 -53.519531 10.789062 -54.289062 12.484375 -55.082031 C 14.179688 -55.871094 15.609375 -56.53125 16.777344 -57.058594 C 17.945312 -57.585938 18.53125 -57.847656 18.53125 -57.847656 L 18.53125 -47.339844 C 19.058594 -47.71875 20.09375 -48.453125 21.636719 -49.546875 C 23.179688 -50.636719 24.953125 -51.804688 26.949219 -53.046875 C 28.945312 -54.289062 30.996094 -55.34375 33.105469 -56.210938 C 35.214844 -57.078125 37.136719 -57.511719 38.867188 -57.511719 Z M 37.171875 -7.003906 C 38.605469 -8.136719 39.675781 -10.433594 40.394531 -13.898438 C 41.109375 -17.363281 41.464844 -21.054688 41.464844 -24.96875 C 41.464844 -28.660156 41.183594 -32.144531 40.617188 -35.421875 C 40.054688 -38.699219 39.207031 -41.050781 38.078125 -42.484375 C 37.097656 -43.6875 35.742188 -44.515625 34.007812 -44.96875 C 32.277344 -45.421875 30.507812 -45.648438 28.699219 -45.648438 C 26.664062 -45.648438 24.6875 -45.457031 22.765625 -45.082031 C 20.847656 -44.707031 19.472656 -44.292969 18.644531 -43.839844 L 18.644531 -14.914062 C 19.472656 -8.738281 23.539062 -5.386719 30.84375 -4.859375 C 31.898438 -4.859375 32.992188 -5.027344 34.121094 -5.367188 C 35.253906 -5.707031 36.269531 -6.253906 37.171875 -7.003906 Z M 37.171875 -7.003906 "/></g></g></g><g fill="#002f76" fill-opacity="1"><g transform="translate(799.36369, 142.500004)"><g><path d="M 34.347656 -6.667969 C 36.082031 -6.667969 37.851562 -6.796875 39.660156 -7.0625 C 41.464844 -7.324219 43.199219 -7.609375 44.855469 -7.910156 C 44.628906 -7.609375 44.101562 -6.96875 43.273438 -5.988281 C 42.445312 -5.007812 41.296875 -3.9375 39.828125 -2.769531 C 38.359375 -1.601562 36.476562 -0.582031 34.179688 0.28125 C 31.882812 1.148438 29.152344 1.582031 25.988281 1.582031 C 18.832031 1.582031 13.085938 -0.886719 8.757812 -5.820312 C 4.425781 -10.753906 2.257812 -18.492188 2.257812 -29.039062 C 2.257812 -34.613281 3.105469 -39.566406 4.800781 -43.894531 C 6.496094 -48.226562 9.09375 -51.636719 12.597656 -54.121094 C 16.101562 -56.605469 20.601562 -57.847656 26.101562 -57.847656 C 29.339844 -57.847656 32.089844 -57.433594 34.347656 -56.605469 C 36.609375 -55.777344 38.433594 -54.816406 39.828125 -53.726562 C 41.222656 -52.632812 42.257812 -51.671875 42.933594 -50.84375 C 43.613281 -50.015625 43.953125 -49.601562 43.953125 -49.601562 L 18.53125 -18.191406 C 18.53125 -18.191406 18.546875 -18.039062 18.585938 -17.738281 C 18.625 -17.4375 18.792969 -16.984375 19.09375 -16.382812 C 20.449219 -13.371094 21.917969 -11.1875 23.5 -9.828125 C 25.082031 -8.472656 26.777344 -7.609375 28.585938 -7.230469 C 30.394531 -6.855469 32.3125 -6.667969 34.347656 -6.667969 Z M 12.429688 -43.386719 C 12.429688 -41.351562 12.671875 -39.148438 13.164062 -36.777344 C 13.652344 -34.40625 14.21875 -32.144531 14.859375 -30 C 15.5 -27.851562 16.042969 -26.082031 16.496094 -24.6875 C 16.949219 -23.292969 17.175781 -22.558594 17.175781 -22.484375 C 17.175781 -22.484375 17.605469 -23.125 18.472656 -24.40625 C 19.339844 -25.6875 20.355469 -27.230469 21.523438 -29.039062 C 22.691406 -30.84375 23.820312 -32.558594 24.914062 -34.179688 C 26.007812 -35.796875 26.816406 -36.984375 27.34375 -37.738281 C 29.226562 -40.601562 29.941406 -42.878906 29.488281 -44.574219 C 29.039062 -46.269531 27.71875 -47.511719 25.535156 -48.300781 C 23.351562 -49.09375 20.675781 -49.601562 17.511719 -49.828125 C 15.554688 -49.902344 14.238281 -49.394531 13.558594 -48.300781 C 12.878906 -47.210938 12.503906 -45.570312 12.429688 -43.386719 Z M 12.429688 -43.386719 "/></g></g></g><g fill="#002f76" fill-opacity="1"><g transform="translate(844.781855, 142.500004)"><g><path d="M 1.355469 0.113281 C 2.785156 -1.621094 3.785156 -3.390625 4.351562 -5.199219 C 4.914062 -7.003906 5.273438 -8.644531 5.421875 -10.113281 C 5.574219 -11.582031 5.648438 -12.65625 5.648438 -13.332031 L 5.648438 -69.035156 C 5.648438 -69.035156 5.59375 -69.617188 5.480469 -70.785156 C 5.367188 -71.953125 5.007812 -73.328125 4.40625 -74.910156 C 3.804688 -76.492188 2.785156 -77.921875 1.355469 -79.203125 C 1.355469 -79.203125 1.941406 -79.488281 3.105469 -80.050781 C 4.273438 -80.617188 5.707031 -81.277344 7.402344 -82.027344 C 9.09375 -82.78125 10.789062 -83.554688 12.484375 -84.34375 C 14.179688 -85.136719 15.609375 -85.796875 16.777344 -86.324219 C 17.945312 -86.851562 18.53125 -87.113281 18.53125 -87.113281 L 18.53125 -13.332031 C 18.53125 -12.730469 18.738281 -11.222656 19.152344 -8.8125 C 19.566406 -6.402344 20.902344 -3.425781 23.164062 0.113281 Z M 1.355469 0.113281 "/></g></g></g><g fill="#002f76" fill-opacity="1"><g transform="translate(869.185693, 142.500004)"><g/></g></g><g fill="#002f76" fill-opacity="1"><g transform="translate(886.132744, 142.500004)"><g><path d="M 48.585938 -7.570312 C 50.617188 -7.570312 52.707031 -7.664062 54.855469 -7.851562 C 57.003906 -8.039062 59.128906 -8.210938 61.238281 -8.359375 C 58.074219 -4.972656 54.367188 -2.523438 50.109375 -1.015625 C 45.855469 0.488281 41.316406 1.242188 36.496094 1.242188 C 31.675781 1.242188 27.191406 0.527344 23.050781 -0.902344 C 18.90625 -2.335938 15.273438 -4.652344 12.144531 -7.851562 C 9.019531 -11.054688 6.570312 -15.253906 4.800781 -20.449219 C 3.03125 -25.648438 2.148438 -32.011719 2.148438 -39.546875 C 2.148438 -49.5625 3.691406 -57.585938 6.777344 -63.613281 C 9.867188 -69.636719 13.992188 -73.96875 19.152344 -76.605469 C 24.3125 -79.242188 30.09375 -80.558594 36.496094 -80.558594 C 41.164062 -80.558594 45.609375 -79.808594 49.828125 -78.300781 C 54.046875 -76.792969 57.699219 -74.382812 60.789062 -71.070312 L 48.699219 -56.269531 C 47.265625 -58.902344 45.421875 -61.183594 43.160156 -63.105469 C 40.902344 -65.023438 38.019531 -66.511719 34.519531 -67.566406 C 31.015625 -68.621094 26.589844 -69.148438 21.242188 -69.148438 C 16.269531 -69.148438 13.859375 -64.816406 14.011719 -56.15625 C 14.011719 -53.367188 14.273438 -50.28125 14.800781 -46.890625 C 15.328125 -43.5 16.082031 -39.960938 17.0625 -36.269531 C 18.117188 -32.425781 19.394531 -28.792969 20.902344 -25.367188 C 22.410156 -21.9375 24.347656 -18.886719 26.722656 -16.214844 C 29.09375 -13.539062 32.050781 -11.429688 35.589844 -9.886719 C 39.132812 -8.34375 43.460938 -7.570312 48.585938 -7.570312 Z M 48.585938 -7.570312 "/></g></g></g><g fill="#002f76" fill-opacity="1"><g transform="translate(947.142248, 142.500004)"><g><path d="M 35.929688 0.113281 C 37.964844 -4.933594 39.167969 -8.359375 39.546875 -10.167969 C 39.921875 -11.976562 40.109375 -12.992188 40.109375 -13.21875 C 40.109375 -17.285156 40.109375 -21.375 40.109375 -25.480469 C 40.109375 -29.582031 40.109375 -33.671875 40.109375 -37.738281 C 40.109375 -37.8125 40.035156 -38.320312 39.882812 -39.261719 C 39.734375 -40.203125 39.300781 -41.257812 38.585938 -42.425781 C 37.871094 -43.59375 36.664062 -44.628906 34.96875 -45.535156 C 33.273438 -46.4375 30.882812 -46.890625 27.796875 -46.890625 C 25.234375 -46.890625 22.222656 -46.136719 18.757812 -44.628906 C 18.757812 -39.433594 18.773438 -34.199219 18.8125 -28.925781 C 18.851562 -23.652344 18.867188 -18.453125 18.867188 -13.332031 C 18.867188 -13.105469 18.925781 -12.351562 19.039062 -11.074219 C 19.152344 -9.792969 19.507812 -8.171875 20.113281 -6.214844 C 20.714844 -4.257812 21.730469 -2.148438 23.164062 0.113281 L 1.355469 0.113281 C 2.710938 -1.621094 3.691406 -3.390625 4.292969 -5.199219 C 4.894531 -7.003906 5.273438 -8.664062 5.421875 -10.167969 C 5.574219 -11.675781 5.648438 -12.730469 5.648438 -13.332031 L 5.648438 -69.035156 C 5.648438 -69.035156 5.59375 -69.617188 5.480469 -70.785156 C 5.367188 -71.953125 5.007812 -73.328125 4.40625 -74.910156 C 3.804688 -76.492188 2.785156 -77.921875 1.355469 -79.203125 C 1.355469 -79.203125 1.941406 -79.46875 3.105469 -79.996094 C 4.273438 -80.523438 5.707031 -81.179688 7.402344 -81.972656 C 9.09375 -82.761719 10.789062 -83.554688 12.484375 -84.34375 C 14.179688 -85.136719 15.609375 -85.796875 16.777344 -86.324219 C 17.945312 -86.851562 18.53125 -87.113281 18.53125 -87.113281 L 18.53125 -47.792969 C 19.132812 -48.394531 20.148438 -49.28125 21.582031 -50.449219 C 23.011719 -51.617188 24.707031 -52.804688 26.664062 -54.007812 C 28.625 -55.214844 30.695312 -56.25 32.878906 -57.113281 C 35.0625 -57.980469 37.171875 -58.414062 39.207031 -58.414062 C 42.371094 -58.414062 44.835938 -57.90625 46.605469 -56.890625 C 48.378906 -55.871094 49.65625 -54.589844 50.449219 -53.046875 C 51.238281 -51.503906 51.710938 -49.902344 51.859375 -48.246094 C 52.011719 -46.589844 52.085938 -45.042969 52.085938 -43.613281 L 52.085938 -42.710938 C 52.085938 -41.503906 52.105469 -39.753906 52.144531 -37.457031 C 52.179688 -35.15625 52.199219 -32.617188 52.199219 -29.828125 C 52.199219 -27.042969 52.199219 -24.367188 52.199219 -21.804688 C 52.199219 -19.246094 52.199219 -17.136719 52.199219 -15.480469 C 52.199219 -13.820312 52.199219 -12.957031 52.199219 -12.878906 C 52.199219 -12.203125 52.425781 -10.808594 52.878906 -8.699219 C 53.332031 -6.589844 54.496094 -3.652344 56.378906 0.113281 Z M 35.929688 0.113281 "/></g></g></g><g fill="#002f76" fill-opacity="1"><g transform="translate(1004.310382, 142.500004)"><g><path d="M 29.039062 -57.847656 C 35.0625 -57.847656 40.074219 -56.492188 44.066406 -53.78125 C 48.058594 -51.070312 51.050781 -47.417969 53.046875 -42.820312 C 55.042969 -38.226562 56.042969 -33.105469 56.042969 -27.457031 C 56.042969 -20.300781 54.816406 -14.59375 52.371094 -10.339844 C 49.921875 -6.082031 46.644531 -3.011719 42.539062 -1.128906 C 38.433594 0.753906 33.933594 1.695312 29.039062 1.695312 C 24.140625 1.695312 19.640625 0.734375 15.535156 -1.1875 C 11.429688 -3.105469 8.171875 -6.253906 5.761719 -10.621094 C 3.351562 -14.988281 2.148438 -20.789062 2.148438 -28.019531 C 2.148438 -35.402344 3.351562 -41.257812 5.761719 -45.589844 C 8.171875 -49.921875 11.429688 -53.046875 15.535156 -54.96875 C 19.640625 -56.890625 24.140625 -57.847656 29.039062 -57.847656 Z M 43.160156 -12.089844 C 43.160156 -16.835938 43.011719 -21.503906 42.710938 -26.101562 C 42.40625 -30.695312 41.128906 -35.175781 38.867188 -39.546875 C 36.910156 -43.460938 34.140625 -46.117188 30.5625 -47.511719 C 26.984375 -48.90625 23.085938 -49.601562 18.867188 -49.601562 C 17.136719 -49.601562 15.914062 -49.113281 15.195312 -48.132812 C 14.480469 -47.152344 14.125 -45.761719 14.125 -43.953125 C 14.125 -39.28125 14.5 -34.667969 15.253906 -30.109375 C 16.007812 -25.554688 17.363281 -21.089844 19.320312 -16.722656 C 21.128906 -12.730469 23.707031 -9.847656 27.058594 -8.078125 C 30.414062 -6.308594 34.234375 -5.421875 38.527344 -5.421875 C 39.882812 -5.347656 40.996094 -5.875 41.863281 -7.003906 C 42.726562 -8.136719 43.160156 -9.828125 43.160156 -12.089844 Z M 43.160156 -12.089844 "/></g></g></g><g fill="#002f76" fill-opacity="1"><g transform="translate(1061.252473, 142.500004)"><g><path d="M 11.636719 -62.820312 C 9.300781 -64.101562 7.363281 -65.625 5.820312 -67.398438 C 4.273438 -69.167969 3.125 -70.730469 2.371094 -72.085938 C 1.621094 -73.441406 1.242188 -74.121094 1.242188 -74.121094 L 11.863281 -84.289062 C 13.144531 -81.878906 14.574219 -79.902344 16.15625 -78.355469 C 17.738281 -76.8125 19.113281 -75.683594 20.28125 -74.96875 C 21.449219 -74.25 22.03125 -73.894531 22.03125 -73.894531 Z M 23.386719 0.113281 L 1.582031 0.113281 C 2.9375 -1.542969 3.917969 -3.277344 4.519531 -5.085938 C 5.121094 -6.890625 5.5 -8.53125 5.648438 -10 C 5.800781 -11.46875 5.875 -12.464844 5.875 -12.992188 L 5.875 -39.773438 C 5.875 -39.773438 5.820312 -40.375 5.707031 -41.578125 C 5.59375 -42.785156 5.234375 -44.179688 4.632812 -45.761719 C 4.03125 -47.339844 3.011719 -48.734375 1.582031 -49.941406 L 18.980469 -57.847656 L 19.09375 -13.332031 C 19.09375 -13.105469 19.152344 -12.351562 19.265625 -11.074219 C 19.378906 -9.792969 19.734375 -8.171875 20.335938 -6.214844 C 20.941406 -4.257812 21.957031 -2.148438 23.386719 0.113281 Z M 23.386719 0.113281 "/></g></g></g><g fill="#002f76" fill-opacity="1"><g transform="translate(1085.995193, 142.500004)"><g><path d="M 36.832031 -58.527344 C 39.320312 -58.527344 41.277344 -58.167969 42.710938 -57.453125 C 44.140625 -56.738281 45.15625 -56.042969 45.761719 -55.363281 C 46.363281 -54.6875 46.664062 -54.347656 46.664062 -54.347656 L 35.589844 -40.449219 C 35.589844 -40.449219 35.269531 -40.957031 34.628906 -41.976562 C 33.992188 -42.992188 32.953125 -43.988281 31.523438 -44.96875 C 30.09375 -45.949219 28.210938 -46.4375 25.875 -46.4375 C 24.820312 -46.4375 23.726562 -46.304688 22.597656 -46.042969 C 21.46875 -45.777344 20.226562 -45.34375 18.867188 -44.742188 L 18.980469 -13.445312 C 18.980469 -13.21875 19.039062 -12.464844 19.152344 -11.1875 C 19.265625 -9.90625 19.621094 -8.285156 20.226562 -6.328125 C 20.828125 -4.367188 21.84375 -2.257812 23.277344 0 L 1.46875 0 C 2.824219 -1.65625 3.804688 -3.390625 4.40625 -5.199219 C 5.007812 -7.003906 5.386719 -8.644531 5.535156 -10.113281 C 5.6875 -11.582031 5.761719 -12.578125 5.761719 -13.105469 L 5.761719 -40.675781 C 5.761719 -40.675781 5.6875 -41.296875 5.535156 -42.539062 C 5.386719 -43.78125 5.007812 -45.195312 4.40625 -46.777344 C 3.804688 -48.359375 2.824219 -49.714844 1.46875 -50.84375 L 18.867188 -58.753906 L 18.867188 -48.472656 C 19.621094 -49.375 20.863281 -50.636719 22.597656 -52.257812 C 24.328125 -53.875 26.402344 -55.328125 28.8125 -56.605469 C 31.222656 -57.886719 33.894531 -58.527344 36.832031 -58.527344 Z M 36.832031 -58.527344 "/></g></g></g><g clip-path="url(#af688cd25b)"><g clip-path="url(#b50f7e982c)"><g clip-path="url(#fb09047937)"><path fill="#002f76" d="M 1480.054688 213.527344 C 1464.761719 215.851562 1449.0625 212.285156 1435.257812 205.125 C 1434.261719 204.609375 1433.269531 204.074219 1432.292969 203.515625 C 1431.304688 202.957031 1430.324219 202.382812 1429.355469 201.777344 C 1428.09375 201 1426.851562 200.191406 1425.628906 199.355469 C 1411.457031 189.625 1399.566406 175.558594 1395.703125 158.804688 C 1391.78125 141.800781 1396.359375 124.167969 1399.460938 107 C 1402.183594 91.996094 1403.519531 75.617188 1397.546875 61.90625 C 1397.289062 61.304688 1397.011719 60.703125 1396.714844 60.109375 C 1396.417969 59.507812 1396.101562 58.90625 1395.78125 58.316406 C 1395.375 57.582031 1394.941406 56.859375 1394.488281 56.148438 C 1387.742188 45.570312 1376.335938 38.792969 1364.574219 34.429688 C 1352.8125 30.070312 1340.394531 27.757812 1328.464844 23.871094 C 1321.632812 21.644531 1314.917969 18.863281 1308.625 15.394531 C 1307.796875 14.9375 1306.980469 14.472656 1306.164062 13.992188 C 1305.375 13.527344 1304.597656 13.042969 1303.824219 12.5625 C 1299.398438 9.765625 1295.238281 6.578125 1291.441406 2.953125 C 1284.683594 -3.511719 1279.183594 -11.484375 1275.9375 -20.214844 L 1411.515625 -73.546875 L 1517.085938 194.824219 C 1506.710938 204.476562 1493.996094 211.40625 1480.054688 213.527344 Z M 1480.054688 213.527344 " fill-opacity="1" fill-rule="nonzero"/></g></g></g><g clip-path="url(#3b469ecc3e)"><g clip-path="url(#c2f519dae2)"><g clip-path="url(#95635ef779)"><path fill="#be9f57" d="M 1520.613281 232.070312 C 1496.078125 241.59375 1468.59375 235.175781 1447.734375 220.105469 C 1440.75 215.058594 1434.34375 208.894531 1429.355469 201.777344 C 1425.910156 196.863281 1423.136719 191.492188 1421.316406 185.738281 C 1417.203125 172.691406 1418.703125 158.910156 1421.214844 145.710938 C 1423.859375 131.789062 1427.644531 117.878906 1427.03125 103.578125 C 1426.726562 96.496094 1425.320312 89.433594 1422.066406 83.09375 C 1419.011719 77.136719 1414.320312 72.226562 1408.914062 68.351562 C 1405.339844 65.785156 1401.523438 63.6875 1397.558594 61.910156 C 1388.480469 57.847656 1378.601562 55.488281 1368.984375 53.101562 C 1355.574219 49.777344 1342.320312 45.890625 1330.332031 38.835938 C 1319.445312 32.425781 1309.9375 23.660156 1303.839844 12.5625 C 1303.335938 11.640625 1302.847656 10.703125 1302.390625 9.753906 C 1299.230469 3.1875 1297.359375 -4.050781 1297.261719 -11.351562 C 1297.175781 -17.648438 1298.3125 -23.824219 1300.277344 -29.785156 L 1303.0625 -30.878906 C 1303.191406 -30.597656 1303.222656 -30.253906 1303.09375 -29.886719 C 1301.988281 -26.726562 1301.125 -23.5 1300.578125 -20.199219 C 1298.472656 -7.582031 1301.742188 4.898438 1308.640625 15.394531 C 1309.597656 16.851562 1310.621094 18.265625 1311.710938 19.636719 C 1320.042969 30.140625 1331.640625 37.519531 1343.90625 42.621094 C 1356.839844 47.996094 1370.625 50.421875 1384.027344 54.292969 C 1387.976562 55.4375 1391.9375 56.746094 1395.785156 58.308594 C 1404.167969 61.707031 1412.046875 66.316406 1418.234375 73.042969 C 1437.941406 94.472656 1427.277344 125.433594 1423.039062 150.472656 C 1420.761719 163.941406 1420.273438 177.726562 1425.945312 190.46875 C 1428.320312 195.796875 1431.503906 200.683594 1435.257812 205.117188 C 1440.777344 211.632812 1447.53125 217.160156 1454.730469 221.609375 C 1465.023438 227.976562 1476.707031 232.289062 1488.753906 233.601562 C 1502.667969 235.132812 1516.507812 232.144531 1528.714844 225.339844 C 1528.824219 225.285156 1528.929688 225.234375 1529.039062 225.207031 L 1529.988281 227.621094 C 1526.953125 229.300781 1523.839844 230.8125 1520.613281 232.070312 Z M 1520.613281 232.070312 " fill-opacity="1" fill-rule="nonzero"/></g></g></g><g clip-path="url(#c2ec06bd75)"><g clip-path="url(#58bb507cac)"><g clip-path="url(#0fa3a9518b)"><path fill="#002f76" d="M -39.875 213.722656 C -24.578125 216.015625 -8.886719 212.410156 4.898438 205.21875 C 5.894531 204.703125 6.886719 204.164062 7.863281 203.605469 C 8.847656 203.042969 9.828125 202.464844 10.792969 201.859375 C 12.054688 201.078125 13.296875 200.265625 14.515625 199.425781 C 28.667969 189.664062 40.523438 175.570312 44.351562 158.808594 C 48.234375 141.796875 43.613281 124.175781 40.472656 107.011719 C 37.71875 92.011719 36.34375 75.640625 42.285156 61.914062 C 42.539062 61.3125 42.816406 60.710938 43.113281 60.113281 C 43.410156 59.511719 43.722656 58.910156 44.042969 58.320312 C 44.449219 57.585938 44.878906 56.863281 45.332031 56.148438 C 52.054688 45.554688 63.445312 38.753906 75.195312 34.359375 C 86.945312 29.972656 99.359375 27.636719 111.277344 23.722656 C 118.109375 21.480469 124.816406 18.683594 131.101562 15.199219 C 131.925781 14.742188 132.742188 14.273438 133.558594 13.789062 C 134.347656 13.324219 135.121094 12.839844 135.894531 12.355469 C 140.3125 9.550781 144.46875 6.351562 148.253906 2.71875 C 155 -3.761719 160.480469 -11.746094 163.707031 -20.484375 L 28.007812 -73.507812 L -76.949219 195.105469 C -66.554688 204.730469 -53.824219 211.632812 -39.875 213.722656 Z M -39.875 213.722656 " fill-opacity="1" fill-rule="nonzero"/></g></g></g><g clip-path="url(#cf004353ad)"><g clip-path="url(#a6bf85853b)"><g clip-path="url(#b7e974bf67)"><path fill="#be9f57" d="M -80.390625 232.355469 C -55.835938 241.824219 -28.363281 235.34375 -7.539062 220.226562 C -0.566406 215.164062 5.824219 208.984375 10.792969 201.859375 C 14.230469 196.933594 16.992188 191.558594 18.796875 185.800781 C 22.882812 172.742188 21.347656 158.964844 18.808594 145.773438 C 16.132812 131.855469 12.316406 117.953125 12.894531 103.652344 C 13.183594 96.570312 14.574219 89.503906 17.8125 83.15625 C 20.855469 77.191406 25.535156 72.273438 30.933594 68.386719 C 34.5 65.808594 38.3125 63.707031 42.277344 61.917969 C 51.34375 57.835938 61.214844 55.453125 70.828125 53.046875 C 84.230469 49.6875 97.472656 45.773438 109.449219 38.691406 C 120.320312 32.253906 129.804688 23.46875 135.882812 12.359375 C 136.382812 11.433594 136.867188 10.492188 137.320312 9.542969 C 140.46875 2.972656 142.324219 -4.269531 142.402344 -11.570312 C 142.476562 -17.867188 141.320312 -24.042969 139.34375 -29.996094 L 136.558594 -31.085938 C 136.429688 -30.804688 136.398438 -30.460938 136.527344 -30.09375 C 137.640625 -26.9375 138.511719 -23.714844 139.066406 -20.410156 C 141.203125 -7.800781 137.960938 4.6875 131.085938 15.199219 C 130.132812 16.660156 129.113281 18.078125 128.027344 19.449219 C 119.714844 29.972656 108.136719 37.378906 95.882812 42.503906 C 82.960938 47.910156 69.179688 50.367188 55.785156 54.273438 C 51.839844 55.425781 47.886719 56.742188 44.039062 58.3125 C 35.664062 61.730469 27.796875 66.359375 21.625 73.097656 C 1.964844 94.570312 12.699219 125.507812 16.996094 150.539062 C 19.304688 164.003906 19.824219 177.789062 14.179688 190.542969 C 11.816406 195.871094 8.644531 200.769531 4.902344 205.210938 C -0.601562 211.738281 -7.34375 217.28125 -14.535156 221.75 C -24.8125 228.140625 -36.484375 232.476562 -48.527344 233.816406 C -62.441406 235.378906 -76.285156 232.421875 -88.507812 225.648438 C -88.617188 225.589844 -88.726562 225.542969 -88.832031 225.515625 L -89.777344 227.929688 C -86.738281 229.605469 -83.621094 231.109375 -80.390625 232.355469 Z M -80.390625 232.355469 " fill-opacity="1" fill-rule="nonzero"/></g></g></g><g clip-path="url(#12ab6101b4)"><path fill="#be9f57" d="M 229.78125 63.242188 C 224.75 61.84375 221.796875 56.609375 223.199219 51.582031 C 223.898438 49.0625 222.425781 46.453125 219.90625 45.75 C 217.386719 45.050781 214.777344 46.523438 214.078125 49.042969 L 199.011719 103.148438 C 196.746094 100.824219 193.863281 99.042969 190.515625 98.113281 C 180.421875 95.300781 169.925781 101.226562 167.113281 111.320312 C 164.304688 121.414062 170.230469 131.914062 180.320312 134.722656 C 190.414062 137.535156 200.914062 131.609375 203.722656 121.515625 L 218.800781 67.371094 C 221.050781 69.675781 223.914062 71.441406 227.238281 72.363281 C 232.265625 73.765625 235.222656 78.996094 233.820312 84.023438 C 233.117188 86.542969 234.589844 89.152344 237.109375 89.855469 C 239.628906 90.558594 242.238281 89.085938 242.941406 86.566406 C 245.746094 76.507812 239.839844 66.042969 229.78125 63.242188 Z M 229.78125 63.242188 " fill-opacity="1" fill-rule="nonzero"/></g><path fill="#be9f57" d="M 231.257812 107.175781 C 228.121094 107.96875 224.917969 106.066406 224.125 102.925781 C 223.726562 101.355469 222.128906 100.402344 220.558594 100.800781 C 218.984375 101.199219 218.035156 102.796875 218.433594 104.371094 L 226.996094 138.128906 C 225.0625 137.574219 222.960938 137.507812 220.871094 138.035156 C 214.574219 139.632812 210.75 146.058594 212.347656 152.355469 C 213.945312 158.652344 220.367188 162.472656 226.664062 160.878906 C 232.964844 159.28125 236.789062 152.855469 235.191406 146.558594 L 226.621094 112.777344 C 228.546875 113.324219 230.628906 113.390625 232.703125 112.863281 C 235.839844 112.070312 239.039062 113.972656 239.835938 117.113281 C 240.234375 118.683594 241.832031 119.636719 243.402344 119.238281 C 244.972656 118.835938 245.925781 117.242188 245.527344 115.667969 C 243.9375 109.394531 237.535156 105.582031 231.257812 107.175781 Z M 231.257812 107.175781 " fill-opacity="1" fill-rule="nonzero"/><g clip-path="url(#8f2b59cc2b)"><path fill="#be9f57" d="M 1269.59375 60.738281 C 1265.257812 59.53125 1262.710938 55.019531 1263.917969 50.683594 C 1264.523438 48.507812 1263.253906 46.257812 1261.082031 45.652344 C 1258.910156 45.050781 1256.660156 46.320312 1256.054688 48.492188 L 1243.0625 95.148438 C 1241.109375 93.144531 1238.625 91.609375 1235.738281 90.804688 C 1227.035156 88.382812 1217.980469 93.492188 1215.558594 102.195312 C 1213.132812 110.898438 1218.246094 119.949219 1226.949219 122.371094 C 1235.652344 124.796875 1244.703125 119.6875 1247.125 110.984375 L 1260.125 64.296875 C 1262.066406 66.285156 1264.535156 67.804688 1267.402344 68.601562 C 1271.738281 69.808594 1274.285156 74.320312 1273.078125 78.65625 C 1272.472656 80.828125 1273.742188 83.078125 1275.914062 83.683594 C 1278.085938 84.289062 1280.335938 83.019531 1280.941406 80.847656 C 1283.359375 72.175781 1278.269531 63.152344 1269.59375 60.738281 Z M 1269.59375 60.738281 " fill-opacity="1" fill-rule="nonzero"/></g><g clip-path="url(#cc82a5afed)"><path fill="#be9f57" d="M 1270.867188 98.617188 C 1268.164062 99.304688 1265.402344 97.660156 1264.71875 94.957031 C 1264.371094 93.601562 1262.996094 92.78125 1261.640625 93.125 C 1260.285156 93.46875 1259.464844 94.84375 1259.808594 96.199219 L 1267.191406 125.3125 C 1265.523438 124.832031 1263.714844 124.773438 1261.914062 125.230469 C 1256.484375 126.605469 1253.183594 132.144531 1254.5625 137.574219 C 1255.941406 143.003906 1261.480469 146.300781 1266.910156 144.925781 C 1272.339844 143.546875 1275.636719 138.007812 1274.257812 132.578125 L 1266.871094 103.449219 C 1268.53125 103.921875 1270.328125 103.976562 1272.113281 103.523438 C 1274.820312 102.839844 1277.578125 104.480469 1278.265625 107.1875 C 1278.609375 108.542969 1279.984375 109.363281 1281.339844 109.019531 C 1282.695312 108.675781 1283.515625 107.296875 1283.171875 105.941406 C 1281.800781 100.53125 1276.28125 97.246094 1270.867188 98.617188 Z M 1270.867188 98.617188 " fill-opacity="1" fill-rule="nonzero"/></g></svg>